<svg width="217" height="35" viewBox="0 0 217 35" fill="none" xmlns="http://www.w3.org/2000/svg">
<mask id="mask0_166_14" style="mask-type:luminance" maskUnits="userSpaceOnUse" x="0" y="0" width="143" height="35">
<path d="M0 0H142.2V34.3404H0V0Z" fill="white"/>
</mask>
<g mask="url(#mask0_166_14)">
<path fill-rule="evenodd" clip-rule="evenodd" d="M61.8403 24.6906V8.62109H59.188V24.6906H61.8403ZM35.8024 19.062V24.6906H33.043V9.45809H38.9974C40.1692 9.45809 41.1832 9.66569 42.0394 10.0809C42.8944 10.4955 43.5457 11.0709 43.9933 11.8071C44.4409 12.5433 44.6647 13.3821 44.6647 14.3235C44.6647 15.3063 44.4427 16.1535 43.9987 16.8651C43.5553 17.5761 42.9091 18.1203 42.0601 18.4977C41.2117 18.8739 40.1908 19.062 38.9974 19.062H35.8024ZM35.8024 16.8867H38.9974C39.9844 16.8867 40.7143 16.6599 41.1871 16.2063C41.6599 15.7527 41.896 15.1317 41.8954 14.3433C41.8954 13.8555 41.7922 13.4076 41.5858 12.9996C41.3719 12.5832 41.038 12.2405 40.6273 12.0159C40.1941 11.7687 39.6511 11.6451 38.9983 11.6451H35.8024V16.8867ZM51.511 24.9003C52.6114 24.9003 53.5666 24.6528 54.3766 24.1578C55.1866 23.6628 55.8061 22.9794 56.2351 22.1076C56.6641 21.2358 56.8789 20.2488 56.8795 19.1466V18.927C56.8795 17.8254 56.6647 16.8384 56.2351 15.966C55.8246 15.1157 55.1774 14.4019 54.3712 13.9104C53.5582 13.4118 52.5976 13.1625 51.4894 13.1625C50.3962 13.1625 49.4446 13.4118 48.6346 13.9104C47.8307 14.4031 47.1855 15.1167 46.7761 15.966C46.3465 16.8384 46.1317 17.8254 46.1317 18.927V19.1466C46.1317 20.2482 46.3465 21.2352 46.7761 22.1076C47.1853 22.9574 47.8329 23.6697 48.64 24.1578C49.4536 24.6528 50.4106 24.9003 51.511 24.9003ZM49.4653 21.7836C49.9201 22.467 50.602 22.8087 51.511 22.8087C52.1146 22.8087 52.6204 22.6467 53.0284 22.3227C53.437 21.9981 53.7388 21.5601 53.9338 21.0087C54.13 20.4579 54.2278 19.8372 54.2272 19.1466V18.927C54.2272 18.243 54.1294 17.6241 53.9338 17.0703C53.7388 16.5159 53.4355 16.0749 53.0239 15.7473C52.6117 15.4191 52.1002 15.255 51.4894 15.255C50.8864 15.255 50.3824 15.4188 49.9774 15.7464C49.5724 16.0746 49.2724 16.5156 49.0774 17.0694C48.8818 17.6244 48.784 18.2436 48.784 18.927V19.1466C48.784 20.2206 49.0111 21.0996 49.4653 21.7836ZM67.9891 28.4184C67.4455 28.98 66.6697 29.2608 65.6617 29.2608C65.3137 29.2608 64.8913 29.1981 64.3945 29.0727V27.0747L64.8841 27.0954C65.5159 27.0954 65.9971 26.9856 66.3277 26.766C66.6577 26.5464 66.9187 26.1609 67.1107 25.6095L67.4725 24.6465L63.4243 13.3695H66.2899L68.6866 20.9655L71.0086 13.3695H73.8319L69.241 26.4051C68.9678 27.1557 68.5415 27.8414 67.9891 28.4184ZM77.9296 24.6915V16.5105C78.3562 15.6945 79.0771 15.2865 80.0923 15.2865C80.7595 15.2865 81.2653 15.4467 81.6097 15.7671C81.9547 16.0881 82.1272 16.6287 82.1272 17.3889V24.6915H84.7795V17.1486L84.7687 16.9074C84.9247 16.4124 85.1893 16.0185 85.5625 15.7257C85.9351 15.4323 86.3983 15.2859 86.9521 15.2865C87.6271 15.2865 88.1332 15.438 88.4704 15.741C88.8076 16.0446 88.9762 16.5834 88.9762 17.3574V24.6915H91.6285V17.3673C91.6285 15.9093 91.3054 14.844 90.6592 14.1714C90.0124 13.4982 89.0788 13.1616 87.8584 13.1616C87.0838 13.1616 86.3983 13.3134 85.8019 13.617C85.2122 13.9136 84.7039 14.3499 84.3214 14.8878C84.0298 14.3016 83.6143 13.8675 83.0749 13.5855C82.5349 13.3029 81.9028 13.1616 81.1786 13.1616C80.4688 13.1616 79.8352 13.2816 79.2778 13.5216C78.7299 13.755 78.2433 14.1116 77.8558 14.5638L77.7703 13.3704H75.2773V24.6906L77.9296 24.6915ZM99.508 24.5556C99.004 24.7854 98.4322 24.9003 97.7926 24.9003C97.0402 24.9003 96.3658 24.7539 95.7694 24.4611C95.173 24.1683 94.708 23.7639 94.3744 23.2479C94.0402 22.7308 93.8658 22.1266 93.8731 21.5109C93.8731 20.3049 94.3294 19.3809 95.242 18.7389C96.1546 18.0969 97.4488 17.7759 99.1246 17.7759H100.722V17.0433C100.722 16.4439 100.555 15.975 100.222 15.6366C99.8881 15.2982 99.3943 15.129 98.7403 15.129C98.3857 15.1219 98.0336 15.1896 97.7071 15.3279C97.4312 15.4432 97.192 15.6314 97.015 15.8724C96.8532 16.0978 96.7674 16.3689 96.7702 16.6464H94.1179C94.1179 16.0398 94.315 15.4698 94.7092 14.9364C95.1034 14.4024 95.6644 13.9734 96.3922 13.6494C97.1194 13.3248 97.9522 13.1625 98.8906 13.1625C99.7708 13.1625 100.548 13.3089 101.223 13.6017C101.898 13.8951 102.425 14.3346 102.805 14.9202C103.185 15.5058 103.375 16.2207 103.374 17.0649V22.0554C103.374 23.0874 103.52 23.9067 103.812 24.5133V24.6915H101.106C100.992 24.4473 100.893 24.0951 100.808 23.6349C100.438 24.023 99.9967 24.3357 99.508 24.5556ZM98.3038 22.8186C97.7434 22.8186 97.3069 22.6737 96.9943 22.3839C96.6823 22.0947 96.526 21.7197 96.5254 21.2589C96.5254 20.6661 96.7633 20.2059 97.2391 19.8783C97.7149 19.5507 98.4142 19.3869 99.337 19.3869H100.722V21.5001C100.524 21.8631 100.21 22.1733 99.7798 22.4307C99.3496 22.6881 98.8576 22.8171 98.3038 22.8177M108.687 16.9803V24.6906H106.035V13.3713H108.559L108.633 14.6475C108.9 14.1981 109.273 13.821 109.72 13.5495C110.154 13.2915 110.655 13.1625 111.222 13.1625C111.372 13.1625 111.54 13.1763 111.728 13.2039C111.916 13.2321 112.056 13.2636 112.149 13.2984L112.128 15.7572C111.779 15.7018 111.427 15.6738 111.074 15.6735C109.886 15.6735 109.091 16.1085 108.687 16.9803ZM116.396 24.6906V21.0186L117.557 19.8576L120.913 24.6906H123.981L119.262 18.0783L123.533 13.3713H120.338L117.185 16.875L116.396 17.838V8.62109H113.755V24.6906H116.396ZM132.968 24.2946C132.222 24.6984 131.321 24.9003 130.263 24.9003C129.141 24.9003 128.16 24.6615 127.322 24.1839C126.505 23.7274 125.836 23.0466 125.395 22.2219C124.947 21.3921 124.723 20.4612 124.723 19.4292V18.9999C124.723 17.8353 124.951 16.812 125.405 15.93C125.86 15.048 126.484 14.3661 127.279 13.8843C128.075 13.4031 128.97 13.1625 129.964 13.1625C131.051 13.1625 131.963 13.3962 132.702 13.8636C133.44 14.3304 133.992 14.9844 134.358 15.8256C134.724 16.6656 134.907 17.64 134.907 18.7488V19.8468H127.397C127.447 20.4264 127.6 20.9394 127.855 21.3858C128.11 21.8316 128.456 22.1802 128.894 22.4316C129.33 22.6824 129.839 22.8078 130.422 22.8078C131.615 22.8078 132.574 22.3476 133.298 21.4272L134.715 22.7772C134.297 23.3838 133.715 23.8902 132.968 24.2946ZM132.286 17.964H127.45C127.571 17.1054 127.844 16.4394 128.271 15.966C128.696 15.492 129.257 15.2547 129.953 15.2541C130.735 15.2541 131.31 15.4896 131.679 15.9606C132.048 16.431 132.251 17.0325 132.286 17.7651V17.964ZM142.274 24.6483C141.764 24.8163 141.189 24.9003 140.549 24.9003C139.612 24.9003 138.873 24.6453 138.333 24.1353C137.794 23.6265 137.524 22.8141 137.524 21.6981V15.2955H135.649V13.3713H137.524V10.6092H140.176V13.3722H142.2V15.2964H140.176V21.5208C140.176 21.9948 140.276 22.3176 140.475 22.4892C140.674 22.6602 140.972 22.7454 141.37 22.7448C141.653 22.7448 141.955 22.71 142.274 22.6404V24.6483Z" fill="black"/>
<path d="M21.3481 27.8609C21.3481 28.9949 21.3481 29.5619 20.9773 29.8427C20.6065 30.1235 20.0611 29.9705 18.9694 29.6636L1.42569 24.7406C0.767794 24.5561 0.439294 24.4643 0.248494 24.2132C0.0576939 23.9621 0.0585938 23.621 0.0585938 22.9379V11.3999C0.0585938 10.7168 0.0585939 10.3757 0.248494 10.1246C0.439294 9.87354 0.767794 9.78174 1.42569 9.59724L18.9694 4.67424C20.0611 4.36824 20.6074 4.21434 20.9773 4.49514C21.3481 4.77684 21.3481 5.34384 21.3481 6.47694V27.8609ZM4.43349 23.1359L18.9595 27.2129V19.0589L4.43349 23.1359ZM2.44629 21.245L16.9705 17.1689L2.44539 13.0928L2.44629 21.245ZM4.43349 11.2019L18.9595 15.2789V7.12494L4.43349 11.2019Z" fill="black"/>
</g>
<path d="M149.89 6.52187H153.31C154.98 6.52187 156.265 6.98687 157.165 7.91687C158.065 8.83687 158.515 10.1519 158.515 11.8619C158.515 13.5619 158.07 14.8719 157.18 15.7919C156.3 16.7119 155.04 17.1719 153.4 17.1719H149.89V6.52187ZM153.31 15.6869C155.66 15.6869 156.835 14.4119 156.835 11.8619C156.835 10.5619 156.54 9.59687 155.95 8.96687C155.37 8.32687 154.49 8.00687 153.31 8.00687H151.51V15.6869H153.31ZM162.595 17.3519C161.755 17.3519 161.09 17.1619 160.6 16.7819C160.11 16.3919 159.865 15.8569 159.865 15.1769C159.865 14.4969 160.07 13.9619 160.48 13.5719C160.89 13.1819 161.535 12.9019 162.415 12.7319L165.16 12.2069C165.16 10.9769 164.59 10.3619 163.45 10.3619C162.46 10.3619 161.86 10.8069 161.65 11.6969L160 11.5919C160.15 10.7919 160.525 10.1619 161.125 9.70187C161.735 9.24187 162.51 9.01187 163.45 9.01187C164.52 9.01187 165.335 9.30187 165.895 9.88187C166.465 10.4519 166.75 11.2569 166.75 12.2969V15.4019C166.75 15.5919 166.785 15.7269 166.855 15.8069C166.925 15.8769 167.035 15.9119 167.185 15.9119H167.47V17.1719C167.37 17.2019 167.175 17.2169 166.885 17.2169C166.415 17.2169 166.05 17.1169 165.79 16.9169C165.53 16.7169 165.365 16.3919 165.295 15.9419C165.095 16.3619 164.75 16.7019 164.26 16.9619C163.77 17.2219 163.215 17.3519 162.595 17.3519ZM162.865 16.0919C163.565 16.0919 164.12 15.8919 164.53 15.4919C164.95 15.0919 165.16 14.5669 165.16 13.9169V13.4069L162.835 13.8569C162.365 13.9469 162.025 14.0869 161.815 14.2769C161.615 14.4669 161.515 14.7169 161.515 15.0269C161.515 15.3669 161.63 15.6319 161.86 15.8219C162.1 16.0019 162.435 16.0919 162.865 16.0919ZM171.447 17.1719C170.687 17.1719 170.127 17.0019 169.767 16.6619C169.407 16.3119 169.227 15.7619 169.227 15.0119V10.4969H168.012V9.19187H169.227V7.31687H170.817V9.19187H172.932V10.4969H170.817V14.8919C170.817 15.2519 170.892 15.5069 171.042 15.6569C171.202 15.7969 171.452 15.8669 171.792 15.8669H172.932V17.1719H171.447ZM176.833 17.3519C175.993 17.3519 175.328 17.1619 174.838 16.7819C174.348 16.3919 174.103 15.8569 174.103 15.1769C174.103 14.4969 174.308 13.9619 174.718 13.5719C175.128 13.1819 175.773 12.9019 176.653 12.7319L179.398 12.2069C179.398 10.9769 178.828 10.3619 177.688 10.3619C176.698 10.3619 176.098 10.8069 175.888 11.6969L174.238 11.5919C174.388 10.7919 174.763 10.1619 175.363 9.70187C175.973 9.24187 176.748 9.01187 177.688 9.01187C178.758 9.01187 179.573 9.30187 180.133 9.88187C180.703 10.4519 180.988 11.2569 180.988 12.2969V15.4019C180.988 15.5919 181.023 15.7269 181.093 15.8069C181.163 15.8769 181.273 15.9119 181.423 15.9119H181.708V17.1719C181.608 17.2019 181.413 17.2169 181.123 17.2169C180.653 17.2169 180.288 17.1169 180.028 16.9169C179.768 16.7169 179.603 16.3919 179.533 15.9419C179.333 16.3619 178.988 16.7019 178.498 16.9619C178.008 17.2219 177.453 17.3519 176.833 17.3519ZM177.103 16.0919C177.803 16.0919 178.358 15.8919 178.768 15.4919C179.188 15.0919 179.398 14.5669 179.398 13.9169V13.4069L177.073 13.8569C176.603 13.9469 176.263 14.0869 176.053 14.2769C175.853 14.4669 175.753 14.7169 175.753 15.0269C175.753 15.3669 175.868 15.6319 176.098 15.8219C176.338 16.0019 176.673 16.0919 177.103 16.0919ZM191.011 17.4119C190.171 17.4119 189.436 17.2619 188.806 16.9619C188.186 16.6519 187.691 16.2219 187.321 15.6719C186.961 15.1119 186.751 14.4669 186.691 13.7369L188.356 13.6319C188.456 14.3819 188.731 14.9569 189.181 15.3569C189.631 15.7469 190.251 15.9419 191.041 15.9419C191.741 15.9419 192.276 15.8119 192.646 15.5519C193.026 15.2919 193.216 14.9119 193.216 14.4119C193.216 14.0919 193.141 13.8219 192.991 13.6019C192.841 13.3719 192.561 13.1619 192.151 12.9719C191.751 12.7719 191.166 12.5769 190.396 12.3869C189.526 12.1769 188.841 11.9469 188.341 11.6969C187.841 11.4369 187.476 11.1269 187.246 10.7669C187.026 10.3969 186.916 9.93187 186.916 9.37187C186.916 8.76187 187.061 8.22687 187.351 7.76687C187.651 7.29687 188.081 6.93187 188.641 6.67187C189.201 6.41187 189.856 6.28187 190.606 6.28187C191.786 6.28187 192.726 6.60187 193.426 7.24187C194.136 7.87187 194.551 8.70687 194.671 9.74687L193.021 9.83687C192.931 9.19687 192.676 8.69187 192.256 8.32187C191.846 7.94187 191.286 7.75187 190.576 7.75187C189.966 7.75187 189.481 7.89687 189.121 8.18687C188.761 8.46687 188.581 8.84187 188.581 9.31187C188.581 9.63187 188.651 9.89187 188.791 10.0919C188.941 10.2819 189.196 10.4519 189.556 10.6019C189.926 10.7519 190.466 10.9119 191.176 11.0819C192.516 11.3919 193.466 11.8069 194.026 12.3269C194.596 12.8469 194.881 13.5119 194.881 14.3219C194.881 14.9519 194.716 15.5019 194.386 15.9719C194.066 16.4319 193.611 16.7869 193.021 17.0369C192.441 17.2869 191.771 17.4119 191.011 17.4119ZM196.647 6.52187H200.067C201.737 6.52187 203.022 6.98687 203.922 7.91687C204.822 8.83687 205.272 10.1519 205.272 11.8619C205.272 13.5619 204.827 14.8719 203.937 15.7919C203.057 16.7119 201.797 17.1719 200.157 17.1719H196.647V6.52187ZM200.067 15.6869C202.417 15.6869 203.592 14.4119 203.592 11.8619C203.592 10.5619 203.297 9.59687 202.707 8.96687C202.127 8.32687 201.247 8.00687 200.067 8.00687H198.267V15.6869H200.067ZM207.092 6.52187H208.712V11.6069L213.197 6.52187H215.162L211.082 11.1719L215.432 17.1719H213.527L210.002 12.3119L208.712 13.7519V17.1719H207.092V6.52187Z" fill="#848484"/>
</svg>
